<svg width="24" height="24" viewBox="0 0 20 20" fill="none" xmlns="http://www.w3.org/2000/svg">
<path d="M5.9987 8.00008H4.9987C4.55667 8.00008 4.13275 7.82449 3.82019 7.51193C3.50763 7.19937 3.33203 6.77544 3.33203 6.33341C3.33203 5.89139 3.50763 5.46746 3.82019 5.1549C4.13275 4.84234 4.55667 4.66675 4.9987 4.66675H5.9987" stroke="#202124" stroke-width="1.25" stroke-linecap="round" stroke-linejoin="round"/>
<path d="M14 8.00008H15C15.442 8.00008 15.866 7.82449 16.1785 7.51193C16.4911 7.19937 16.6667 6.77544 16.6667 6.33341C16.6667 5.89139 16.4911 5.46746 16.1785 5.1549C15.866 4.84234 15.442 4.66675 15 4.66675H14" stroke="#202124" stroke-width="1.25" stroke-linecap="round" stroke-linejoin="round"/>
<path d="M4.66406 16.6667H15.3307" stroke="#202124" stroke-width="1.25" stroke-linecap="round" stroke-linejoin="round"/>
<path d="M8.66406 11.7734V13.3334C8.66406 13.7001 8.35073 13.9868 8.0174 14.1401C7.23073 14.5001 6.66406 15.4934 6.66406 16.6668" stroke="#202124" stroke-width="1.25" stroke-linecap="round" stroke-linejoin="round"/>
<path d="M11.332 11.7734V13.3334C11.332 13.7001 11.6454 13.9868 11.9787 14.1401C12.7654 14.5001 13.332 15.4934 13.332 16.6668" stroke="#202124" stroke-width="1.25" stroke-linecap="round" stroke-linejoin="round"/>
<path d="M14 3.33337H6V8.00004C6 9.06091 6.42143 10.0783 7.17157 10.8285C7.92172 11.5786 8.93913 12 10 12C11.0609 12 12.0783 11.5786 12.8284 10.8285C13.5786 10.0783 14 9.06091 14 8.00004V3.33337Z" stroke="#202124" stroke-width="1.25" stroke-linecap="round" stroke-linejoin="round"/>
</svg>
