<svg width="49" height="48" viewBox="0 0 49 48" fill="none" xmlns="http://www.w3.org/2000/svg">
<path d="M31.166 33C31.5993 30.8333 32.6827 29.3167 34.416 27.5833C36.5827 25.6333 37.666 22.8167 37.666 20C37.666 16.5522 36.2964 13.2456 33.8584 10.8076C31.4204 8.36964 28.1138 7 24.666 7C21.2182 7 17.9116 8.36964 15.4736 10.8076C13.0357 13.2456 11.666 16.5522 11.666 20C11.666 22.1667 12.0993 24.7667 14.916 27.5833C16.4327 29.1 17.7327 30.8333 18.166 33" stroke="#0A9C3A" stroke-width="2" stroke-linecap="round" stroke-linejoin="round"/>
<path d="M18.666 33H30.666" stroke="#0A9C3A" stroke-width="2" stroke-linecap="round" stroke-linejoin="round"/>
<path d="M18.666 38H30.666" stroke="#0A9C3A" stroke-width="2" stroke-linecap="round" stroke-linejoin="round"/>
<path d="M20.666 43H28.666" stroke="#0A9C3A" stroke-width="2" stroke-linecap="round" stroke-linejoin="round"/>
</svg>
