<svg width="24" height="24" viewBox="0 0 20 20" fill="none" xmlns="http://www.w3.org/2000/svg">
  <path d="M2.54688 10.2605C2.48437 10.0922 2.48437 9.90692 2.54688 9.73854C3.15565 8.26243 4.18902 7.00032 5.51596 6.11221C6.8429 5.22411 8.40366 4.75 10.0004 4.75C11.5971 4.75 13.1579 5.22411 14.4848 6.11221C15.8117 7.00032 16.8451 8.26243 17.4539 9.73854C17.5164 9.90692 17.5164 10.0922 17.4539 10.2605C16.8451 11.7366 15.8117 12.9988 14.4848 13.8869C13.1579 14.775 11.5971 15.2491 10.0004 15.2491C8.40366 15.2491 6.8429 14.775 5.51596 13.8869C4.18902 12.9988 3.15565 11.7366 2.54688 10.2605Z" 
        stroke="currentColor" 
        stroke-width="1.25" 
        stroke-linecap="round" 
        stroke-linejoin="round"/>
  <path d="M10 12.25C11.2426 12.25 12.25 11.2426 12.25 10C12.25 8.75736 11.2426 7.75 10 7.75C8.75736 7.75 7.75 8.75736 7.75 10C7.75 11.2426 8.75736 12.25 10 12.25Z" 
        stroke="currentColor" 
        stroke-width="1.25" 
        stroke-linecap="round" 
        stroke-linejoin="round"/>
</svg>
