<svg width="49" height="48" viewBox="0 0 49 48" fill="none" xmlns="http://www.w3.org/2000/svg">
<path d="M20.334 22C24.7523 22 28.334 18.4183 28.334 14C28.334 9.58172 24.7523 6 20.334 6C15.9157 6 12.334 9.58172 12.334 14C12.334 18.4183 15.9157 22 20.334 22Z" stroke="#536471" stroke-width="2" stroke-linecap="round" stroke-linejoin="round"/>
<path d="M20.934 30H14.334C12.2123 30 10.1774 30.8429 8.67713 32.3431C7.17684 33.8434 6.33398 35.8783 6.33398 38V42" stroke="#536471" stroke-width="2" stroke-linecap="round" stroke-linejoin="round"/>
<path d="M34.334 40C37.6477 40 40.334 37.3137 40.334 34C40.334 30.6863 37.6477 28 34.334 28C31.0203 28 28.334 30.6863 28.334 34C28.334 37.3137 31.0203 40 34.334 40Z" stroke="#536471" stroke-width="2" stroke-linecap="round" stroke-linejoin="round"/>
<path d="M42.3352 42.0002L38.5352 38.2002" stroke="#536471" stroke-width="2" stroke-linecap="round" stroke-linejoin="round"/>
</svg>
